<svg width="312" height="359" viewBox="0 0 312 359" fill="none" xmlns="http://www.w3.org/2000/svg">
<g clip-path="url(#clip0_470_1221)">
<path d="M157.572 0.904445L156.016 0L0 89.7662V269.266L156.016 359.032L312.032 269.266V89.7662L157.572 0.904445ZM154.46 178.628L127.004 194.423V23.8709L154.46 8.0754V178.628ZM123.892 196.232L96.4364 212.028V41.443L123.892 25.6475V196.2V196.232ZM93.3245 213.837L65.8685 229.632V59.0473L93.3245 43.2519V213.804V213.837ZM62.7566 231.441L35.3006 247.236V76.6517L62.7566 60.8562V231.409V231.441ZM156.049 181.341L183.505 197.137L35.2357 282.381L7.77974 266.585L155.984 181.309L156.049 181.341ZM186.617 198.946L214.073 214.741L65.8685 300.017L38.4125 284.222L186.617 198.946ZM217.184 216.55L244.64 232.345L96.4364 317.622L68.9804 301.826L217.184 216.55ZM247.752 234.154L275.208 249.95L127.004 335.226L99.5483 319.431L247.752 234.154ZM278.32 251.759L304.22 266.65L156.016 351.926L130.116 337.035L278.32 251.759ZM157.572 178.692V147.102L305.776 232.378V263.969L157.572 178.692ZM157.572 143.516V111.925L305.776 197.201V228.792L157.572 143.516ZM157.572 108.34V76.7486L305.776 162.025V193.616L157.572 108.34ZM157.572 73.1631V41.443L305.776 126.719V158.31L157.572 73.0662V73.1631ZM157.572 37.9867V8.0754L305.776 93.3516V123.166L157.572 37.8575V37.9867ZM32.1238 78.4283V248.981L6.22379 263.872V93.3516L32.1238 78.4606V78.4283Z" fill="#2D3231"/>
</g>
<defs>
<clipPath id="clip0_470_1221">
<rect width="312" height="359" fill="white"/>
</clipPath>
</defs>
</svg>
