<svg width="37" height="33" viewBox="0 0 37 33" fill="none" xmlns="http://www.w3.org/2000/svg">
<g clip-path="url(#clip0_660_1330)">
<path d="M12.2277 25.8497L14.8518 27.3662L18.0616 25.5138L15.4375 24.0006V1.76277L12.3845 0L12.1157 0.153563L0 7.14707V10.8518L12.2277 3.79428V25.8497Z" fill="#262626"/>
<path d="M21.5625 1.76277V25.0979L12.3845 30.3958L3.20654 25.0979V10.6054L0 12.4578V25.8497L12.3845 33L24.7691 25.8497V3.79428L37 10.8518V7.14707L24.6155 0L21.5625 1.76277Z" fill="#262626"/>
<path d="M23.0952 28.4219L19.8887 30.2743L24.6153 33L36.9998 25.8497V12.4578L33.7901 10.6054V24.0006L24.6153 29.2985L23.0952 28.4219Z" fill="#262626"/>
</g>
<defs>
<clipPath id="clip0_660_1330">
<rect width="37" height="33" fill="white"/>
</clipPath>
</defs>
</svg>
